<svg width="200" height="179" xmlns="http://www.w3.org/2000/svg">
 <!-- Created with Method Draw - http://github.com/duopixel/Method-Draw/ -->

 <g>
  <title>background</title>
  <rect x="-1" y="-1" width="202" height="181" id="canvas_background" fill="none"/>
  <g id="canvasGrid" display="none">
   <rect id="svg_1" width="100%" height="100%" x="0" y="0" stroke-width="0" fill="url(#gridpattern)"/>
  </g>
 </g>
 <g>
  <title>Layer 1</title>
  <g stroke="null" id="svg_11">
   <g stroke="null" id="svg_12">
    <g stroke="null" id="svg_5">
     <path stroke="null" fill="currentColor" d="m139.46251,92.701l-80.925,0c-1.71187,0 -3.1125,1.31305 -3.1125,2.91789l0,5.83579c0,1.60484 1.40062,2.91789 3.1125,2.91789l80.925,0c1.71187,0 3.1125,-1.31305 3.1125,-2.91789l0,-5.83579c0,-1.60484 -1.40062,-2.91789 -3.1125,-2.91789zm12.45,-58.35785c-5.15508,0 -9.3375,3.92092 -9.3375,8.75367c0,1.29482 0.31125,2.49844 0.85593,3.61089l-14.08407,7.91478c-2.99578,1.67779 -6.86696,0.72948 -8.59828,-2.11547l-15.85429,-26.00572c2.08149,-1.60484 3.44321,-4.0121 3.44321,-6.74762c0,-4.83275 -4.18242,-8.75367 -9.3375,-8.75367s-9.3375,3.92092 -9.3375,8.75367c0,2.73553 1.36172,5.14278 3.44321,6.74762l-15.85429,26.00572c-1.73133,2.84495 -5.62196,3.79326 -8.59828,2.11547l-14.06461,-7.91478c0.52524,-1.09421 0.85593,-2.31608 0.85593,-3.61089c0,-4.83275 -4.18242,-8.75367 -9.3375,-8.75367s-9.35696,3.92092 -9.35696,8.75367s4.18242,8.75367 9.3375,8.75367c0.50578,0 1.01157,-0.07295 1.49789,-0.14589l14.06461,35.1606l74.7,0l14.06461,-35.1606c0.48633,0.07295 0.99211,0.14589 1.49789,0.14589c5.15508,0 9.3375,-3.92092 9.3375,-8.75367s-4.18242,-8.75367 -9.3375,-8.75367z" id="svg_4"/>
    </g>
    <g stroke="null" id="svg_10">
     <path stroke="null" fill="currentColor" d="m69.3116,108.43785l59.37682,0l0,34.25132l-59.37682,0l0,-34.25132zm74.22104,17.12566c0,4.72918 3.98752,8.56283 8.90653,8.56283l0,17.12566c0,4.72918 -3.98752,8.56283 -8.90653,8.56283l-89.06524,0c-4.919,0 -8.90653,-3.83365 -8.90653,-8.56283l0,-17.12566c4.919,0 8.90653,-3.83365 8.90653,-8.56283s-3.98752,-8.56283 -8.90653,-8.56283l0,-17.12566c0,-4.72918 3.98752,-8.56283 8.90653,-8.56283l89.06524,0c4.919,0 8.90653,3.83365 8.90653,8.56283l0,17.12566c-4.919,0 -8.90653,3.83365 -8.90653,8.56283zm-8.90653,-18.55279c0,-2.36459 -1.99377,-4.28141 -4.45326,-4.28141l-62.34567,0c-2.45949,0 -4.45326,1.91683 -4.45326,4.28141l0,37.1056c0,2.36459 1.99377,4.28141 4.45326,4.28141l62.34567,0c2.45949,0 4.45326,-1.91683 4.45326,-4.28141l0,-37.1056z" id="svg_9"/>
    </g>
   </g>
  </g>
 </g>
</svg>